<svg xmlns="http://www.w3.org/2000/svg" fill="none" viewBox="0 0 140 112" height="112" width="140">
<path fill="#2F2483" d="M0.0117826 80.8331C6.64479 82.4315 12.0289 87.6743 13.698 94.3033H26.748L35.4938 111.104C44.652 106.548 57.651 102.774 70.1826 102.774C82.7142 102.774 95.6347 106.784 104.793 111.324L113.346 94.2994H126.314C127.979 87.6743 133.379 82.4276 140 80.8292V55.9584C133.379 54.3561 127.979 48.9955 126.314 42.3782H92.76C95.9645 37.9719 97.8535 32.5563 97.8535 26.7205V26.7087C97.8535 19.3492 94.8492 12.6769 90.0188 7.83472C85.1727 3.00429 78.4886 0 71.133 0C63.7774 0 57.0894 3.00429 52.255 7.83472C47.4128 12.6769 44.4085 19.3492 44.4085 26.7087V26.7205C44.4203 32.5563 46.3014 37.9719 49.5021 42.3782H13.6862C12.0172 48.9955 6.633 54.2383 0 55.8406V80.8292L0.0117826 80.8331Z" clip-rule="evenodd" fill-rule="evenodd"></path>
<path fill="white" d="M8.3019 83.2169L8.81636 83.6567L9.33475 84.1044L9.82565 84.5678L10.3048 85.043L10.7682 85.5496L11.2041 86.0641L11.6282 86.5943L12.0366 87.1362L12.4333 87.6939L12.7985 88.2633L13.1559 88.8445L13.4897 89.4415L13.7921 90.0541L14.0984 90.6746L14.3615 91.2951L14.6129 91.9431L14.8367 92.5911L14.8878 92.7364H25.9271L25.1731 91.3069H15.8971L15.685 90.7492L15.3944 90.0737L15.0763 89.414L14.7425 88.766L14.3851 88.1141L14.0002 87.4936L13.6036 86.8849L13.1912 86.2879L12.7553 85.7067L12.2919 85.153L11.8167 84.5953L11.3258 84.0691L10.8271 83.5507L10.2969 83.048L9.75496 82.5689L9.1973 82.1094L8.61608 81.6578L8.03093 81.2337L7.42221 80.8213L6.8135 80.4404L6.1773 80.0712L5.54502 79.7256L4.88133 79.3957L4.21764 79.0934L3.53038 78.8145L3.01592 78.6142V58.0751L3.53038 57.8866L4.21764 57.596L4.88133 57.3054L5.54502 56.9716L6.1773 56.6299L6.8135 56.2568L7.42221 55.8759L8.03093 55.4675L8.61608 55.0433L9.1973 54.5956L9.75496 54.1322L10.2969 53.657L10.8271 53.1543L11.3258 52.636L11.8167 52.1058L12.2919 51.5521L12.7553 50.9983L13.1912 50.4132L13.6036 49.8202L14.0002 49.1997L14.3851 48.5753L14.7425 47.943L15.0763 47.295L15.3944 46.6313L15.685 45.9597L15.8971 45.406H52.0546C51.603 44.9387 51.1671 44.4635 50.7547 43.9765H14.8878L14.8367 44.1218L14.6129 44.7698L14.3615 45.406L14.0984 46.0383L13.7921 46.6588L13.4897 47.2675L13.1559 47.8605L12.7985 48.4457L12.4333 49.0151L12.0366 49.5688L11.6282 50.1147L11.2041 50.6449L10.7682 51.1633L10.3048 51.6502L9.82565 52.1411L9.33475 52.6045L8.81636 53.0522L8.3019 53.4881L7.75602 53.8966L7.21407 54.2932L6.64463 54.6781L6.07126 55.0512L5.47826 55.3811L4.88133 55.7109L4.27262 56.0173L3.65212 56.2922L3.01592 56.5513L2.36793 56.7948L1.71995 57.0187L1.58643 57.0619V79.6549L1.71995 79.6942L2.36793 79.9102L3.01592 80.1576L3.65212 80.409L4.27262 80.6996L4.88133 81.0059L5.47826 81.3201L6.07126 81.6657L6.64463 82.0348L7.21407 82.404L7.75602 82.8045L8.3019 83.2247V83.2169ZM114.143 92.7324H125.128L125.183 92.5871L125.406 91.9392L125.658 91.2912L125.937 90.6707L126.227 90.0502L126.534 89.4375L126.879 88.8406L127.225 88.2594L127.606 87.6899L127.987 87.1323L128.395 86.5903L128.819 86.0602L129.271 85.5457L129.722 85.0391L130.198 84.5639L130.7 84.1005L131.203 83.6528L131.717 83.213L132.259 82.7928L132.801 82.3922L133.367 82.023L133.952 81.6539L134.533 81.3083L135.13 80.9941L135.751 80.6878L136.371 80.3972L137.007 80.1458L137.644 79.8984L138.292 79.6824L138.421 79.6432V57.1522L138.292 57.1129L137.644 56.8852L136.996 56.6495L136.359 56.3864L135.739 56.0919L135.13 55.7895L134.517 55.4596L133.936 55.114L133.355 54.7449L132.801 54.36L132.248 53.9633L131.717 53.5392L131.187 53.1033L130.685 52.6399L130.198 52.1765L129.722 51.6856L129.259 51.1829L128.823 50.6684L128.399 50.1265L127.991 49.5845L127.594 49.0269L127.225 48.4417L126.879 47.8605L126.534 47.2636L126.227 46.6588L125.937 46.0344L125.658 45.4021L125.406 44.7541L125.183 44.1061L125.128 43.9608H91.5345C91.1104 44.4478 90.6745 44.9269 90.2229 45.3903H124.118L124.33 45.944L124.621 46.6156L124.939 47.2793L125.273 47.939L125.63 48.5792L125.999 49.2036L126.396 49.8202L126.82 50.4171L127.256 50.9983L127.708 51.5678L128.183 52.1254L128.674 52.6674L129.188 53.1818L129.703 53.6884L130.245 54.1793L130.814 54.6506L131.38 55.1022L131.961 55.5224L132.57 55.9466L133.178 56.3275L133.815 56.7006L134.463 57.058L135.111 57.3878L135.782 57.6942L136.461 57.9691L136.992 58.1811V78.6025L136.473 78.8027L135.798 79.0816L135.122 79.384L134.474 79.7138L133.826 80.0594L133.206 80.4286L132.581 80.8095L131.977 81.2219L131.395 81.646L130.826 82.0976L130.257 82.5571L129.715 83.0362L129.196 83.5389L128.682 84.0573L128.187 84.5836L127.712 85.1412L127.26 85.6949L126.828 86.2762L126.4 86.8731L126.007 87.4818L125.622 88.1023L125.265 88.7542L124.931 89.4022L124.613 90.062L124.323 90.7374L124.11 91.2951H114.846L114.135 92.7246L114.143 92.7324Z" clip-rule="evenodd" fill-rule="evenodd"></path>
<path fill="white" d="M71.1446 3.15745C84.1279 3.15745 94.7116 13.7412 94.7116 26.7244C94.7116 39.7077 84.1279 50.2836 71.1446 50.2836C58.1614 50.2836 47.5698 39.6959 47.5698 26.7244C47.5698 13.753 58.1614 3.15745 71.1446 3.15745ZM71.1446 1.61014C84.9722 1.61014 96.2629 12.8811 96.2629 26.7284C96.2629 40.5756 84.9722 51.8387 71.1446 51.8387C57.317 51.8387 46.0186 40.5599 46.0186 26.7284C46.0186 12.8968 57.3092 1.61014 71.1446 1.61014Z" clip-rule="evenodd" fill-rule="evenodd"></path>
<path fill="white" d="M71.1447 37.3317C69.2754 39.0244 66.8798 39.9904 64.4292 39.421C47.994 33.0943 41.1607 23.9754 62.5638 14.2753C65.1008 13.3485 68.0147 13.9454 71.0583 16.3017L71.1408 16.3528L71.2154 16.3017C74.2589 13.9454 77.1729 13.3485 79.7138 14.2753C101.129 23.9754 94.2836 33.0943 77.8445 39.421C75.3978 39.9904 73.014 39.0204 71.1486 37.3435L71.1368 37.3317H71.1447Z" clip-rule="evenodd" fill-rule="evenodd"></path>
<path fill="#2F2483" d="M56.3434 21.8705H85.9347C88.4638 21.8705 90.5413 24.0147 90.5413 26.6341C90.5413 29.2535 88.4599 31.4135 85.9347 31.4135H56.3434C53.8143 31.4135 51.7368 29.2732 51.7368 26.6341C51.7368 23.9951 53.8143 21.8705 56.3434 21.8705Z" clip-rule="evenodd" fill-rule="evenodd"></path>
<path fill="white" d="M55.2433 25.562V28.421C55.153 28.5781 55.0194 28.7077 54.8741 28.8294C54.5285 29.2379 54.8859 29.7523 55.4554 29.7288H59.4257C60.7885 29.5442 61.2912 27.8241 60.6314 27.0543C60.38 26.7362 60.0109 26.5242 59.5868 26.3003C59.4689 26.2336 59.4532 26.1158 59.5868 25.994C60.8317 25.1968 60.2897 23.889 59.1116 23.6259C58.5303 23.5749 57.9059 23.6652 57.4307 23.889C57.1912 23.9951 57.0027 23.9833 56.8731 23.8223C56.6728 23.6024 56.4097 23.5317 56.0523 23.7084L55.0194 24.1443C54.7013 24.3682 54.7013 24.6195 54.9134 24.8826C55.1137 25.1104 55.2433 25.295 55.2433 25.5581M57.415 25.8683C57.2304 25.8683 57.1126 25.8016 57.0969 25.6013V24.9533C57.1637 24.6509 57.8392 24.5174 58.1141 24.6352C58.4439 24.7137 58.6599 25.1654 58.3536 25.5227C58.0905 25.8291 57.7881 25.8526 57.415 25.8683ZM57.0969 28.4367V27.074C57.0969 26.8109 57.2422 26.7402 57.4896 26.7559C58.1965 26.6773 58.6717 26.8462 58.8681 27.3253C59.0801 27.8241 59.0291 28.4092 58.605 28.6723C58.0748 29.0729 57.203 29.014 57.0969 28.4328V28.4367ZM61.2911 28.5545L62.972 25.2989C63.078 25.1261 63.023 24.9533 62.8659 24.8748C62.6421 24.6902 62.3633 24.4349 62.7599 24.1207C63.2351 24.0147 63.6043 23.9087 63.9891 23.7005C64.2797 23.5827 64.4879 23.6181 64.641 23.7948C64.9827 24.2307 66.3062 26.7834 67.1387 28.2796C67.881 29.0768 67.6689 29.4264 67.0994 29.6031C66.424 29.5245 65.9213 29.501 65.4736 29.6188C65.0652 29.6738 64.8374 29.4303 64.9042 29.1161L65.1437 28.6527C65.2772 28.2561 65.1555 28.0322 64.8374 28.0558L62.9327 28.0715C62.6539 28.15 62.5596 28.6802 62.7481 28.8255C63.4354 29.391 62.9209 29.9212 62.2729 29.7209C61.9705 29.6424 61.5857 29.6306 61.2126 29.6738C60.8042 29.6581 60.5764 29.4185 60.8827 28.9708C61.0398 28.853 61.1851 28.7313 61.2911 28.5624V28.5545ZM63.3333 27.074L63.942 25.8291L64.6292 27.074H63.3333ZM74.2234 28.5545L75.9081 25.2989C76.0141 25.1261 75.9592 24.9533 75.806 24.8748C75.5782 24.6902 75.2994 24.4349 75.696 24.1207C76.1752 24.0147 76.5443 23.9087 76.9292 23.7005C77.2198 23.5827 77.4319 23.6181 77.5772 23.7948C77.9188 24.2307 79.2423 26.7834 80.0788 28.2796C80.821 29.0768 80.6089 29.4264 80.0395 29.6031C79.364 29.5245 78.8613 29.501 78.4097 29.6188C78.0013 29.6738 77.7735 29.4303 77.8403 29.1161L78.0798 28.6527C78.2134 28.2561 78.0955 28.0322 77.7735 28.0558L75.8688 28.0715C75.5861 28.15 75.4958 28.6802 75.6843 28.8255C76.3715 29.391 75.8571 29.9212 75.2091 29.7209C74.9028 29.6424 74.5218 29.6306 74.1487 29.6738C73.7403 29.6581 73.5165 29.4185 73.8228 28.9708C73.9799 28.853 74.1252 28.7313 74.2312 28.5624L74.2234 28.5545ZM76.2616 27.074L76.8703 25.8291L77.5732 27.074H76.2616ZM68.5486 25.0358L68.5368 28.1304C68.5761 28.3542 68.4308 28.527 68.258 28.6723C67.7121 29.0297 67.8967 29.5324 68.3758 29.7052C68.6939 29.7445 68.9609 29.6541 69.2633 29.6384C70.2687 29.6149 71.1012 29.5756 72.0163 29.6777C72.6643 29.7327 73.0098 29.6384 73.2573 29.3282C73.6186 28.9001 73.7756 28.5035 73.8267 28.0676C73.7874 27.6042 73.2965 27.4471 72.8213 27.6905C72.6603 27.7887 72.515 27.934 72.3815 28.1697C71.9966 28.7391 71.4547 28.963 70.846 28.8059C70.414 28.6488 70.304 28.3425 70.3197 27.9851V25.1025C70.2922 24.7569 70.3826 24.6391 70.6496 24.3328C70.8224 23.9754 70.4886 23.567 70.1469 23.6338C69.656 23.7398 69.1416 23.7673 68.6742 23.6495C68.2265 23.6613 68.038 23.9126 68.1598 24.325C68.2265 24.4978 68.5172 24.5763 68.5446 25.0397L68.5486 25.0358ZM82.5372 25.4717V28.154C82.5215 28.476 82.2858 28.7509 81.8774 28.7666C81.6771 28.7941 81.4808 28.7666 81.2923 28.7273C81.0017 28.7273 80.7621 29.0886 81.0684 29.4028C81.4651 29.7327 82.3369 29.8426 82.8671 29.7091C83.7389 29.4696 84.2023 28.8491 84.324 27.9262V24.2307C84.2966 23.7005 83.9785 23.3824 83.4247 23.5945C83.0399 23.7791 82.6668 23.9126 82.3016 24.0029C81.9403 24.1639 81.8224 24.5331 82.1013 24.8394C82.3801 25.0593 82.5372 25.2046 82.5372 25.4717ZM85.4472 28.2757V25.1536C85.4354 24.863 85.3137 24.5999 85.0663 24.3996C84.9995 24.321 84.9602 24.215 84.9602 24.109C84.9602 23.8301 85.1841 23.6102 85.4629 23.6102C85.5022 23.6102 85.5415 23.6181 85.5807 23.6181C85.9617 23.7162 86.3858 23.7005 86.7432 23.6338C87.3126 23.5395 87.5915 23.9087 87.4187 24.3878C87.3794 24.4938 87.3519 24.5056 87.2851 24.5841C87.1909 24.6902 87.1673 24.8355 87.1673 25.0358V28.1461C87.1516 28.2521 87.2066 28.4642 87.3126 28.582C87.67 28.9394 87.6818 29.6541 86.9278 29.6149C86.5429 29.5363 86.1855 29.5206 85.8439 29.5992C85.4865 29.6541 85.2626 29.5992 85.1291 29.4028C85.0349 29.2575 84.9956 29.1279 85.0741 28.9669C85.1802 28.7155 85.4433 28.582 85.4433 28.2796L85.4472 28.2757Z" clip-rule="evenodd" fill-rule="evenodd"></path>
<path fill="#FFED00" d="M11.3143 63.0312V73.5168C10.9569 74.098 10.5092 74.6007 9.95156 75.0248C8.69879 76.4936 10.0222 78.3865 12.0997 78.2922H26.6342C31.6257 77.6442 33.4243 71.3215 31.0405 68.5567C30.098 67.3629 28.7667 66.5971 27.1919 65.7881C26.756 65.5367 26.7285 65.0851 27.1919 64.6335C31.7867 61.7313 29.7995 56.9559 25.46 56.0055C23.3236 55.762 21.0615 56.1115 19.3022 56.9323C18.4578 57.3525 17.7823 57.2897 17.264 56.7163C16.5374 55.8955 15.5831 55.656 14.2715 56.2529L10.4896 57.8709C9.35462 58.6917 9.36248 59.6185 10.1204 60.5964C10.847 61.4171 11.3221 62.0769 11.3221 63.0312M19.259 64.1544C18.5717 64.1819 18.1201 63.9148 18.1201 63.2158V60.8477C18.3479 59.7363 20.7945 59.2218 21.8391 59.6578C23.0212 59.9759 23.8381 61.6292 22.7031 62.9134C21.737 64.0405 20.5981 64.119 19.259 64.1583V64.1544ZM18.1201 73.5835V68.5685C18.0926 67.6142 18.6345 67.3629 19.5614 67.4296C22.1022 67.1233 23.8341 67.7595 24.5921 69.5071C25.3697 71.3215 25.1733 73.4657 23.6103 74.4436C21.7017 75.9006 18.4617 75.7003 18.1162 73.5875L18.1201 73.5835ZM33.4596 74.0155L39.5782 62.0887C39.9984 61.4446 39.7588 60.8477 39.1933 60.5257C38.4 59.8502 37.3672 58.9116 38.8242 57.7884C40.5678 57.38 41.9345 57.0069 43.3208 56.2018C44.3929 55.7934 45.1351 55.9387 45.7046 56.5592C46.9377 58.1458 51.7799 67.5043 54.8235 72.9827C57.5372 75.8849 56.7949 77.1651 54.69 77.8131C52.2276 77.5382 50.3897 77.4439 48.7364 77.8524C47.2244 78.0644 46.4311 77.1769 46.6589 75.9987L47.5189 74.314C47.9941 72.8727 47.5857 72.0676 46.4036 72.154L39.4407 72.1972C38.4118 72.5036 38.078 74.4043 38.7535 74.962C41.2826 77.0159 39.4132 78.9481 37.0216 78.2451C35.922 77.9545 34.5318 77.927 33.1455 78.0723C31.661 77.982 30.8363 77.1219 31.9241 75.4804C32.5211 75.0719 33.063 74.6203 33.4596 74.0077V74.0155ZM40.9134 68.5764L43.1244 63.9973L45.6614 68.5764H40.9134ZM80.7507 74.0155L86.8771 62.0887C87.2895 61.4446 87.0617 60.8477 86.4805 60.5257C85.6872 59.8502 84.6544 58.9116 86.1113 57.7884C87.8707 57.38 89.2217 57.0069 90.6237 56.2018C91.6801 55.7934 92.4341 55.9387 92.9878 56.5592C94.221 58.1458 99.0789 67.5043 102.111 72.9827C104.824 75.8849 104.082 77.1651 101.989 77.8131C99.5305 77.5382 97.6729 77.4439 96.0196 77.8524C94.5116 78.0644 93.7144 77.1769 93.9539 75.9987L94.81 74.314C95.2891 72.8727 94.865 72.0676 93.6869 72.154L86.7397 72.1972C85.695 72.5036 85.3612 74.4043 86.0367 74.962C88.5776 77.0159 86.7004 78.9481 84.3166 78.2451C83.217 77.9545 81.815 77.927 80.4248 78.0723C78.956 77.982 78.1352 77.1219 79.2231 75.4804C79.82 75.0719 80.358 74.6203 80.7429 74.0077L80.7507 74.0155ZM88.2124 68.5764L90.4116 63.9973L92.9682 68.5764H88.2124ZM59.972 61.1147L59.9445 72.4289C60.0506 73.289 59.5361 73.9134 58.8999 74.4161C56.9402 75.7513 57.6 77.5893 59.3476 78.1862C60.5022 78.3747 61.4958 77.9898 62.5679 77.9623C66.2869 77.8563 69.3187 77.7267 72.6804 78.0959C75.0367 78.304 76.2816 77.9937 77.1927 76.8117C78.4887 75.2487 79.0856 73.7799 79.2702 72.1933C79.1524 70.5125 77.3773 69.9587 75.5904 70.8463C75.021 71.1644 74.479 71.6906 73.9921 72.5782C72.6293 74.6988 70.6186 75.5039 68.3801 74.9345C66.8171 74.3533 66.4087 73.2419 66.4754 71.9145V61.3818C66.3419 60.1133 66.7268 59.6892 67.6497 58.5621C68.333 57.2386 67.0959 55.7306 65.8392 55.9937C64.0367 56.3903 62.1555 56.4571 60.4669 56.0448C58.8096 56.0958 58.1498 56.9833 58.5465 58.5228C58.8096 59.1433 59.8856 59.4339 59.976 61.1187L59.972 61.1147ZM111.151 62.7288V72.5232C111.096 73.7171 110.212 74.6949 108.716 74.7892C108.001 74.852 107.287 74.7617 106.56 74.6164C105.539 74.6439 104.667 75.9163 105.767 77.0669C107.236 78.2961 110.397 78.681 112.333 78.2019C115.534 77.3301 117.23 75.0798 117.666 71.6749V58.1497C117.599 56.2293 116.394 55.0787 114.36 55.8327C112.997 56.5199 111.646 56.9991 110.279 57.3289C108.944 57.9416 108.52 59.2886 109.537 60.4118C110.554 61.2326 111.151 61.7745 111.151 62.7288ZM121.794 72.9591V61.5389C121.727 60.4942 121.318 59.5007 120.364 58.7859C120.136 58.4796 120.007 58.0987 120.007 57.7138C120.007 56.7084 120.824 55.8994 121.833 55.8994C121.978 55.8994 122.139 55.9269 122.269 55.9505C123.663 56.2529 125.206 56.2293 126.546 56.0055C128.623 55.6324 129.601 56.9951 129.004 58.727C128.87 59.1158 128.741 59.1786 128.501 59.485C128.195 59.8816 128.05 60.4118 128.093 61.1226V72.4839C128.054 72.8923 128.199 73.6464 128.623 74.0823C129.907 75.394 129.946 78.0291 127.205 77.8838C125.819 77.55 124.503 77.5382 123.251 77.8288C121.939 78.0252 121.091 77.7974 120.616 77.0866C120.258 76.5564 120.152 76.0655 120.419 75.4725C120.8 74.5693 121.794 74.1058 121.794 72.9552V72.9591Z" clip-rule="evenodd" fill-rule="evenodd"></path>
<path fill="#0AA537" d="M104.043 109.077C94.9396 104.168 82.671 101.364 70.1865 101.364C57.702 101.364 45.2372 104.168 36.134 109.077L27.0269 91.0241C39.3621 84.5404 54.7684 81.0098 70.1865 81.0098C85.6046 81.0098 100.732 84.7407 113.071 91.0241L104.043 109.077Z" clip-rule="evenodd" fill-rule="evenodd"></path>
<path fill="white" d="M42.1546 101.545C41.2671 99.8524 40.3952 98.1598 39.5077 96.4476C38.6358 94.755 37.7483 93.0466 36.8765 91.3423C37.3517 91.2362 37.8308 91.1145 38.306 91.0084C38.8479 92.1316 39.3781 93.2587 39.92 94.3819C40.462 95.4933 40.9921 96.6164 41.5341 97.7435C41.8797 98.4583 42.1978 99.1613 42.4845 99.8642C42.5002 98.6507 42.5002 97.936 42.5002 97.7435C42.5512 96.4319 42.618 95.1398 42.673 93.8399C42.724 92.5322 42.779 91.2362 42.8458 89.9206C43.4113 89.791 43.969 89.6575 44.5423 89.524C44.99 90.384 45.4534 91.2441 45.9168 92.0923C46.3645 92.9524 46.8436 93.8124 47.3071 94.6725C47.9943 95.9449 48.552 97.1623 48.9997 98.313C48.9761 97.5982 48.9761 96.7657 48.984 95.8271C48.9997 94.6097 48.9997 93.3765 49.0114 92.1434C49.0232 90.9142 49.0389 89.681 49.0507 88.4518C49.5141 88.334 49.9775 88.2241 50.4527 88.118C50.3742 90.0423 50.3074 91.9706 50.2407 93.8871C50.1739 95.8232 50.0954 97.7396 50.0286 99.6718C49.577 99.7778 49.1293 99.8839 48.6737 99.9899C48.0022 98.7096 47.311 97.4097 46.6237 96.1138C45.9365 94.8257 45.261 93.5297 44.5737 92.2337C44.2281 91.5897 44.0161 91.1891 43.9493 91.0438C43.9493 91.574 43.9375 92.0216 43.9218 92.3908C43.8551 93.8596 43.804 95.3283 43.7372 96.801C43.6862 98.2698 43.6312 99.7386 43.5645 101.207C43.0893 101.313 42.6101 101.435 42.1467 101.537M52.5734 99.1495C53.0761 97.2173 53.567 95.2969 54.0697 93.3805C54.5606 91.4483 55.0475 89.5279 55.5502 87.6114C56.0647 87.5447 56.5831 87.4936 57.0975 87.4386C58.0243 89.2137 58.9511 90.9849 59.8779 92.7442C60.8048 94.5193 61.7434 96.2944 62.6859 98.0538C62.1282 98.1245 61.5902 98.1716 61.0561 98.2423C60.5024 97.1505 59.9722 96.0823 59.4303 95.0142C57.9222 95.1712 56.426 95.3283 54.9336 95.5011C54.6509 96.6675 54.376 97.8182 54.0971 98.9806C53.5945 99.0317 53.08 99.0984 52.5773 99.1534L52.5734 99.1495ZM55.2085 94.2523C56.422 94.1227 57.6434 93.9892 58.8726 93.8556C58.3817 92.8778 57.8908 91.896 57.4156 90.9024C56.9758 90.0188 56.6341 89.2765 56.4103 88.6953C56.3592 89.4258 56.2257 90.1484 56.0529 90.8788C55.7741 92.0059 55.4834 93.133 55.2046 94.2523H55.2085ZM63.9544 97.881C63.9151 96.0156 63.8601 94.162 63.8365 92.2926C63.7933 90.4429 63.758 88.5736 63.7305 86.7239C66.1693 86.6728 68.6159 86.6296 71.0508 86.5904C71.0626 87.0302 71.0626 87.4622 71.0783 87.902C69.1186 87.9413 67.1472 87.9806 65.1914 88.0041C65.215 89.1587 65.2425 90.3055 65.27 91.4601C66.9626 91.4326 68.6591 91.409 70.3517 91.3815C70.3674 91.8135 70.3674 92.2534 70.3792 92.6932C68.6866 92.7128 66.9783 92.756 65.2857 92.7835C65.3132 93.6318 65.3249 94.4801 65.3367 95.3126C65.3524 96.1609 65.3642 97.0092 65.3878 97.8535C64.9165 97.8535 64.4374 97.8692 63.9622 97.881H63.9544ZM73.1675 97.8025C73.2579 95.9488 73.3403 94.0991 73.4346 92.2416C73.517 90.3801 73.6074 88.5225 73.6977 86.6728C76.3053 86.8064 78.9248 86.9477 81.5324 87.093C81.5049 87.5329 81.4931 87.9688 81.4814 88.4008C79.3371 88.2869 77.2086 88.1769 75.0761 88.0591C75.0251 89.198 74.9583 90.3369 74.919 91.4718C76.9023 91.5779 78.9012 91.6878 80.9001 91.7939C80.8884 92.2298 80.8609 92.6657 80.8452 93.1016C78.8344 92.9956 76.8434 92.8896 74.8484 92.7717C74.7816 94.0402 74.7148 95.2969 74.6638 96.5693C76.8866 96.6871 79.0976 96.8089 81.3243 96.9267C81.2968 97.3587 81.2811 97.7985 81.2575 98.2384C78.5595 98.1049 75.8734 97.9556 73.1715 97.7985L73.1675 97.8025ZM83.2643 98.3837C83.4999 96.5418 83.7513 94.7039 83.9908 92.8621C84.2304 91.0202 84.4935 89.1705 84.7331 87.3326C86.3236 87.5722 87.9102 87.796 89.4967 88.0238C90.4628 88.1612 91.1776 88.3654 91.641 88.6286C92.1201 88.9074 92.4735 89.304 92.7013 89.8617C92.9409 90.4036 93.0076 90.9849 92.9252 91.5975C92.8348 92.3751 92.4892 92.9995 91.9198 93.4629C91.3621 93.9263 90.5571 94.1659 89.4967 94.1659C89.8541 94.4055 90.1054 94.6293 90.29 94.8374C90.6474 95.2891 90.9812 95.8349 91.2718 96.4829C91.7627 97.5708 92.2536 98.6664 92.7445 99.7503C92.1358 99.6718 91.5389 99.5775 90.9576 99.499C90.5767 98.6664 90.2036 97.8221 89.8345 96.9856C89.5164 96.2669 89.2375 95.7132 89.0098 95.3166C88.7859 94.9317 88.5738 94.6529 88.3893 94.484C88.1929 94.3073 87.9926 94.1777 87.7806 94.0873C87.6195 94.0324 87.3564 93.9774 86.999 93.9303C86.4414 93.8478 85.8877 93.7692 85.3418 93.6907C85.224 94.5115 85.1061 95.3166 85.0119 96.1373C84.9059 96.9581 84.7841 97.7789 84.6781 98.5879C84.2147 98.5211 83.7356 98.4544 83.2643 98.3876V98.3837ZM85.5028 92.4104C86.5356 92.5597 87.5567 92.705 88.5738 92.8503C89.2218 92.9445 89.7402 92.9563 90.1212 92.8621C90.506 92.7835 90.8084 92.5989 91.048 92.3201C91.2718 92.0452 91.4171 91.7428 91.4603 91.3854C91.5389 90.8553 91.4053 90.4036 91.0912 90.007C90.7574 89.6261 90.1997 89.3747 89.4103 89.2569C88.2715 89.0959 87.1326 88.9231 85.9937 88.766C85.8366 89.9834 85.6756 91.2009 85.5067 92.4183L85.5028 92.4104ZM94.3821 96.6086C94.8141 96.6911 95.2697 96.7539 95.7174 96.8364C95.6506 97.3901 95.6899 97.8692 95.8352 98.2777C95.9805 98.69 96.2593 99.0592 96.6953 99.389C97.1155 99.7307 97.6338 99.9703 98.2308 100.131C98.757 100.265 99.2479 100.304 99.6995 100.249C100.132 100.182 100.505 100.037 100.772 99.8132C101.035 99.5736 101.208 99.2987 101.286 98.9688C101.365 98.6232 101.341 98.3051 101.208 97.9988C101.074 97.6964 100.811 97.4058 100.414 97.1113C100.163 96.9306 99.5817 96.5968 98.6667 96.102C97.7556 95.615 97.1312 95.2184 96.8052 94.9121C96.3536 94.5036 96.063 94.0795 95.9177 93.6043C95.7684 93.1527 95.7449 92.6618 95.8666 92.1748C95.9962 91.6211 96.275 91.1537 96.6874 90.7571C97.0958 90.3604 97.6378 90.113 98.2622 90.0031C98.9102 89.9128 99.5857 89.952 100.289 90.1405C101.07 90.3408 101.73 90.6432 102.272 91.0516C102.802 91.4601 103.175 91.9627 103.371 92.544C103.572 93.1291 103.611 93.7496 103.481 94.3819C103.034 94.2994 102.582 94.2209 102.119 94.1423C102.209 93.4433 102.091 92.8581 101.757 92.4065C101.428 91.9431 100.858 91.6172 100.053 91.4051C99.2087 91.193 98.5567 91.193 98.0973 91.4169C97.6339 91.6289 97.3432 91.9706 97.2372 92.4065C97.143 92.8071 97.2097 93.1488 97.4218 93.4786C97.6339 93.8007 98.2701 94.2327 99.3422 94.7903C100.414 95.348 101.145 95.7682 101.51 96.0745C102.056 96.5261 102.409 97.0131 102.598 97.5276C102.782 98.0459 102.81 98.6036 102.676 99.1848C102.527 99.7543 102.237 100.257 101.805 100.681C101.353 101.105 100.795 101.396 100.135 101.514C99.46 101.647 98.7452 101.62 98.003 101.423C97.0487 101.184 96.2829 100.822 95.7017 100.375C95.1362 99.9271 94.7199 99.3655 94.496 98.7057C94.2683 98.0302 94.2329 97.3273 94.3939 96.6007L94.3821 96.6086Z" clip-rule="evenodd" fill-rule="evenodd"></path>
</svg>
